<svg width="58" height="58" viewBox="0 0 58 58" fill="none" xmlns="http://www.w3.org/2000/svg">
<path d="M29 58C45.0163 58 58 45.0163 58 29C58 12.9837 45.0163 0 29 0C12.9837 0 0 12.9837 0 29C0 45.0163 12.9837 58 29 58Z" fill="white"/>
<path d="M29 57.5C44.7401 57.5 57.5 44.7401 57.5 29C57.5 13.2599 44.7401 0.5 29 0.5C13.2599 0.5 0.5 13.2599 0.5 29C0.5 44.7401 13.2599 57.5 29 57.5Z" stroke="#707070"/>
<path d="M39.7421 18.6721C38.3072 17.4732 36.4617 16.8806 34.5971 17.02C32.7325 17.1595 30.9956 18.0201 29.7551 19.4191L28.7011 20.5331L27.6471 19.4191C26.4066 18.0203 24.6699 17.16 22.8056 17.0205C20.9412 16.8811 19.0959 17.4735 17.6611 18.6721C16.8703 19.3824 16.2285 20.2428 15.7732 21.2033C15.3178 22.1639 15.058 23.2053 15.0086 24.2672C14.9593 25.329 15.1216 26.3901 15.4859 27.3887C15.8503 28.3873 16.4095 29.3035 17.1311 30.0841L27.4871 41.0521C27.6415 41.2194 27.8289 41.353 28.0375 41.4444C28.2461 41.5357 28.4714 41.5829 28.6991 41.5829C28.9268 41.5829 29.1521 41.5357 29.3607 41.4444C29.5693 41.353 29.7567 41.2194 29.9111 41.0521L40.2671 30.0851C40.9897 29.3052 41.5499 28.3894 41.9151 27.3909C42.2804 26.3925 42.4434 25.3314 42.3946 24.2693C42.3458 23.2073 42.0863 22.1656 41.6311 21.2048C41.1759 20.244 40.5341 19.3834 39.7431 18.6731L39.7421 18.6721Z" fill="#070322"/>
</svg>
