<svg xmlns="http://www.w3.org/2000/svg" width="21.981" height="24.313" viewBox="0 0 21.981 24.313">
  <path id="Icon_material-date-range" data-name="Icon material-date-range" d="M11.494,13.491H9.163v2.331h2.331Zm4.663,0H13.825v2.331h2.331Zm4.663,0H18.488v2.331h2.331ZM23.15,5.331H21.984V3H19.653V5.331H10.328V3H8V5.331H6.831a2.321,2.321,0,0,0-2.32,2.331L4.5,23.981a2.331,2.331,0,0,0,2.331,2.331H23.15a2.338,2.338,0,0,0,2.331-2.331V7.663A2.338,2.338,0,0,0,23.15,5.331Zm0,18.65H6.831V11.159H23.15Z" transform="translate(-4 -2.5)" stroke="#000" stroke-width="1"/>
</svg>
