<svg id="_2684814318064" xmlns="http://www.w3.org/2000/svg" width="169.227" height="170.215" viewBox="0 0 169.227 170.215">
  <path id="Path_98" data-name="Path 98" d="M87.127,715h58.943v65.373H87.127Zm-63.944,0H82.125v65.373H23.183V715Zm66.445-5.358,14.634-23.228,57.839.008c-2.156,4.3-6.491,10.378-9.248,14.641-6.483,10.022-2.941,8.581-15.356,8.579q-23.935,0-47.869,0Zm-82.52-23.22c17.762,0,40.314.377,57.884-.008l14.788,23.129c-16.111.1-32.068.1-48.024.1-12.1,0-9.069,1.386-15.333-8.6-2.83-4.512-6.946-10.079-9.316-14.618Zm44.654-12.86c3.395.016,23.158.257,24.812-.254l7.935-23.363,8.172,23.363c1.654.511,21.417.271,24.811.283C108.405,687.3,105.6,674.634,97.71,687c-1.739,2.726-11.927,19.661-13.084,19.662-1.113,0-11.356-16.951-13.084-19.662-7.886-12.367-10.575.31-19.781-13.441Zm-8.511-4.581,7.943,12.261-51-.088,0,.859c-1.632,3.311,7.854,15.5,10.1,19.082,7.431,11.861,7.528,8.26,7.528,23.193,0,7.265-1.236,58.313.837,60.606v.823h131.93V784.9c2.069-2.288.837-53.018.837-60.249,0-15.044-.195-11.339,7.419-23.3,2.264-3.558,11.82-16.087,10.208-19.33l0-.859-51.208-.134,9.524-10.893-1.366-1.818-29.591-.157c-2.621-6.408-4.86-14.345-7.1-21.07-4.686-14.064-6.251-9.38-9.824,1.34-1.4,4.213-4.333,19.342-8.4,19.816-5.228.608-24.758-1.39-27.836.742Z" transform="translate(-0.01 -615.504)" fill-rule="evenodd"/>
  <path id="Path_99" data-name="Path 99" d="M3046.1,246.717c-1.073.469-6.982,10.205-6.867,11.8a2.578,2.578,0,0,0,3.476,2.242c2.093-.881,7.145-11.037,7.112-11.82a2.564,2.564,0,0,0-3.721-2.221Z" transform="translate(-2930.578 -237.651)" fill-rule="evenodd"/>
  <path id="Path_100" data-name="Path 100" d="M1401.111,247.708c-3.55,1.55-.046,5.72,1.265,7.889,1.322,2.187,3.068,7.414,6.066,6.155,3.645-1.531.241-5.489-1.087-7.919-1.3-2.378-3.2-7.453-6.244-6.125Z" transform="translate(-1349.531 -238.642)" fill-rule="evenodd"/>
  <path id="Path_101" data-name="Path 101" d="M741.083,905.04c-3.756,2.425,1.79,5.318,3.686,6.408,1.949,1.12,6.467,4.461,8.564,3.272,4.077-2.312-1.985-5.511-3.607-6.444C747.563,907.033,743.337,903.585,741.083,905.04Z" transform="translate(-713.359 -872.344)" fill-rule="evenodd"/>
  <path id="Path_102" data-name="Path 102" d="M3593.505,904.978c-2.431.994-5.277,3.038-7.691,4.328-5.338,2.854-2.465,6.64.819,5.5,1.583-.549,5.919-3.441,7.758-4.424,5.317-2.842,2.679-6.861-.887-5.4Z" transform="translate(-3454.76 -872.326)" fill-rule="evenodd"/>
  <path id="Path_103" data-name="Path 103" d="M2296.87,1.62V14.837c3.081,2.039,1.92,2.039,5,0V1.62c-3.243-2.145-1.729-2.164-5,0Z" transform="translate(-2214.755 -0.004)" fill-rule="evenodd"/>
</svg>
