<svg xmlns="http://www.w3.org/2000/svg" width="41.176" height="35.021" viewBox="0 0 41.176 35.021">
  <g id="Group_287" data-name="Group 287" transform="translate(-1645.895 -228.806)">
    <path id="Path_309" data-name="Path 309" d="M23391.855,2748.727a9.383,9.383,0,0,1,1.477-5.814c.168-.251.266-.389.453-.627.164-.212.311-.408.479-.6a2.9,2.9,0,0,1,.525-.466c.244-.193.338-.3.59-.489a8.672,8.672,0,0,1,4.666-1.632,10.1,10.1,0,0,1,5.832,1.365,11.846,11.846,0,0,1,1.779,1.282c.592.461.84,1.222,1.836,1.222,1.043,0,1.564-1.264,3.561-2.469a9.868,9.868,0,0,1,10.5.191c.264.193.361.306.588.49a3.437,3.437,0,0,1,.576.505,10.048,10.048,0,0,1,.248,12.8c-1.006,1.324-10.223,10.338-11.988,12.124a4.52,4.52,0,0,1-3.939,1.551,4.079,4.079,0,0,1-1.729-.52c-1.324-.8-6.939-6.665-8.148-7.871-1.469-1.47-4.529-4.306-5.564-5.861a10.105,10.105,0,0,1-1.744-5.184h0Zm-2.969-.72a13.334,13.334,0,0,0,3.309,8.84c.566.57.063.224.984.994.9.754,7.729,7.811,9.182,9.264,2.314,2.314,3.674,4.026,7.4,4.026,3.145,0,4.98-2.146,6.818-3.981l6.119-6.118c.279-.276.369-.455.625-.722l2.029-2.023a9.423,9.423,0,0,1,.719-.63,17.587,17.587,0,0,0,2.334-3.064,13.318,13.318,0,0,0,.742-11.305,12.552,12.552,0,0,0-2.227-3.533,12.181,12.181,0,0,0-3.334-2.426,12.671,12.671,0,0,0-10.586-.119,15.258,15.258,0,0,0-1.873,1.006c-.74.473-1.357,1.054-1.635,1.243l-.8-.643a12.9,12.9,0,0,0-7.391-2.687,11.091,11.091,0,0,0-5.848,1.17,11.7,11.7,0,0,0-6.572,10.708Z" transform="translate(-21742.992 -2507.305)" fill-rule="evenodd"/>
    <path id="Path_310" data-name="Path 310" d="M23738.59,2797.868c0,1.412.73,1.343,1.637,1.871,3.373,1.955,2.242,3.985,2.936,4.9a1.451,1.451,0,0,0,2.625-.647,7.061,7.061,0,0,0-3.488-6.406,4.587,4.587,0,0,0-2.451-.972,1.48,1.48,0,0,0-1.258,1.26h0Z" transform="translate(-22063.453 -2562.744)" fill-rule="evenodd"/>
  </g>
</svg>
