<svg xmlns="http://www.w3.org/2000/svg" width="21.303" height="18.119" viewBox="0 0 21.303 18.119">
  <g id="_2684866744848" transform="translate(-0.001)">
    <path id="Path_81" data-name="Path 81" d="M1899.876,6.535a4.861,4.861,0,0,1,.763-3.008c.087-.13.138-.2.234-.324s.161-.211.248-.31a1.539,1.539,0,0,1,.271-.241c.127-.1.175-.156.305-.253a4.489,4.489,0,0,1,2.415-.844,5.223,5.223,0,0,1,3.018.707,6.014,6.014,0,0,1,.92.663c.307.238.435.632.951.632.539,0,.81-.654,1.842-1.277a5.106,5.106,0,0,1,5.435.1c.136.1.187.158.305.254a1.811,1.811,0,0,1,.3.261,5.2,5.2,0,0,1,.129,6.623c-.522.685-5.29,5.349-6.2,6.273a2.336,2.336,0,0,1-2.037.8,2.107,2.107,0,0,1-.895-.269c-.684-.413-3.591-3.448-4.215-4.072a30.234,30.234,0,0,1-2.88-3.032,5.227,5.227,0,0,1-.9-2.682Zm-1.536-.372a6.9,6.9,0,0,0,1.711,4.574c.293.295.033.116.51.514s4,4.041,4.751,4.793c1.2,1.2,1.9,2.083,3.829,2.083,1.626,0,2.576-1.11,3.526-2.06l3.166-3.165c.145-.143.191-.235.325-.374l1.048-1.047c.148-.149.221-.194.372-.326a9.042,9.042,0,0,0,1.208-1.585,6.891,6.891,0,0,0,.383-5.849,6.477,6.477,0,0,0-1.151-1.828,6.31,6.31,0,0,0-1.724-1.255,6.557,6.557,0,0,0-5.478-.062,7.8,7.8,0,0,0-.969.52c-.383.245-.7.546-.847.643l-.412-.333a6.672,6.672,0,0,0-3.824-1.39,5.745,5.745,0,0,0-3.026.605,6.055,6.055,0,0,0-3.4,5.54Z" transform="translate(-1898.339 -0.008)" fill-rule="evenodd"/>
    <path id="Path_82" data-name="Path 82" d="M5454.431,615.662c0,.731.378.695.848.968,1.743,1.011,1.157,2.062,1.517,2.533a.751.751,0,0,0,1.359-.335,3.652,3.652,0,0,0-1.806-3.315,2.362,2.362,0,0,0-1.267-.5A.766.766,0,0,0,5454.431,615.662Z" transform="translate(-5439.3 -612.393)" fill-rule="evenodd"/>
  </g>
</svg>
