<svg xmlns="http://www.w3.org/2000/svg" width="44.281" height="44.281" viewBox="0 0 44.281 44.281">
  <g id="Icon_ionic-ios-arrow-dropleft" data-name="Icon ionic-ios-arrow-dropleft" transform="translate(-3.375 -3.375)">
    <path id="Path_13510" data-name="Path 13510" d="M25.822,10.581a2.062,2.062,0,0,0-2.906,0L12.761,20.768A2.052,2.052,0,0,0,12.7,23.6L22.7,33.638a2.051,2.051,0,1,0,2.906-2.9L17.115,22.12l8.718-8.633A2.053,2.053,0,0,0,25.822,10.581Z" transform="translate(4.516 3.396)"/>
    <path id="Path_13511" data-name="Path 13511" d="M25.516,3.375A22.141,22.141,0,1,0,47.656,25.516,22.137,22.137,0,0,0,25.516,3.375ZM38.758,38.758A18.727,18.727,0,1,1,12.274,12.274,18.727,18.727,0,1,1,38.758,38.758Z"/>
  </g>
</svg>
