<svg id="Icon_ionic-ios-arrow-dropleft" data-name="Icon ionic-ios-arrow-dropleft" xmlns="http://www.w3.org/2000/svg" width="44.281" height="44.281" viewBox="0 0 44.281 44.281">
  <path id="Path_13510" data-name="Path 13510" d="M12.77,10.581a2.062,2.062,0,0,1,2.906,0L25.831,20.768a2.052,2.052,0,0,1,.064,2.831L15.889,33.638a2.051,2.051,0,1,1-2.906-2.9l8.494-8.622-8.718-8.633A2.053,2.053,0,0,1,12.77,10.581Z" transform="translate(4.549 0.021)"/>
  <path id="Path_13511" data-name="Path 13511" d="M25.516,3.375A22.141,22.141,0,1,1,3.375,25.516,22.137,22.137,0,0,1,25.516,3.375ZM12.274,38.758A18.727,18.727,0,1,0,38.758,12.274,18.727,18.727,0,1,0,12.274,38.758Z" transform="translate(-3.375 -3.375)"/>
</svg>
