<svg xmlns="http://www.w3.org/2000/svg" width="28.407" height="25.251" viewBox="0 0 28.407 25.251">
  <path id="Icon_awesome-shopping-cart" data-name="Icon awesome-shopping-cart" d="M26.046,14.86,28.377,4.6a1.184,1.184,0,0,0-1.154-1.446H7.852L7.4.946A1.184,1.184,0,0,0,6.24,0H1.184A1.184,1.184,0,0,0,0,1.184v.789A1.184,1.184,0,0,0,1.184,3.156H4.63L8.095,20.094a2.762,2.762,0,1,0,3.306.422H21.74A2.761,2.761,0,1,0,24.877,20l.272-1.2a1.184,1.184,0,0,0-1.154-1.446H10.757l-.323-1.578H24.891A1.184,1.184,0,0,0,26.046,14.86Z" fill="#fff"/>
</svg>
