<svg xmlns="http://www.w3.org/2000/svg" width="146.193" height="163.357" viewBox="0 0 146.193 163.357">
  <g id="Layer_x0020_1" transform="translate(1.5 1.5)">
    <path id="Path_13494" data-name="Path 13494" d="M118.852,0h53.61l.694.233A10.1,10.1,0,0,1,179.2,3.247a11.413,11.413,0,0,1,2.547,6.734l-.233.927L171.3,114.648a1.3,1.3,0,0,1-1.394,1.16H145.537v-2.781h23.2L178.956,10.682V9.988A7.5,7.5,0,0,0,177.1,5.108a7.5,7.5,0,0,0-4.181-2.314H118.385a7.534,7.534,0,0,0-4.174,2.314h0a7.461,7.461,0,0,0-1.86,4.881v.694l4.874,47.8h-2.781L109.57,10.915V9.988a10.118,10.118,0,0,1,2.547-6.734h0A8.948,8.948,0,0,1,118.152.24l.694-.233Z" transform="translate(-38.55)" fill="#070322" stroke="#070322" stroke-width="3"/>
    <path id="Path_13495" data-name="Path 13495" d="M112.744,32.5a1.394,1.394,0,1,1,0-2.787h67.072a1.394,1.394,0,0,1,0,2.787Z" transform="translate(-39.176 -10.453)" fill="#070322" stroke="#070322" stroke-width="3"/>
    <path id="Path_13496" data-name="Path 13496" d="M165.06,174.37h24.371a1.338,1.338,0,0,1,1.394,1.394l-1.854,17.4a6.53,6.53,0,0,1-1.394,3.474,3.742,3.742,0,0,1-3.02,1.394h-19.49v-2.787h19.49a1.755,1.755,0,0,0,.933-.46,2.624,2.624,0,0,0,.694-1.854l1.854-15.783H165.066V174.37Z" transform="translate(-58.073 -61.349)" fill="#070322" stroke="#070322" stroke-width="3"/>
    <path id="Path_13497" data-name="Path 13497" d="M154.477,59.066a19.622,19.622,0,0,1,13.923,5.8,20.042,20.042,0,0,1,5.8,13.916,20.5,20.5,0,0,1-5.8,13.929,19.433,19.433,0,0,1-13.923,5.561,18.355,18.355,0,0,1-9.282-2.32V92.706a15.685,15.685,0,0,0,9.282,2.781,17.227,17.227,0,0,0,12.069-4.868,16.814,16.814,0,0,0,0-23.678,17.408,17.408,0,0,0-12.069-5.108,16.854,16.854,0,0,0-11.836,5.108,16.665,16.665,0,0,0-4.874,11.836v.46H134.98v-.46a19.059,19.059,0,0,1,5.8-13.916,19.462,19.462,0,0,1,13.689-5.8h0Z" transform="translate(-47.49 -20.779)" fill="#070322" stroke="#070322" stroke-width="3"/>
    <path id="Path_13498" data-name="Path 13498" d="M124.96,1.394a1.4,1.4,0,0,1,2.794,0V13a1.4,1.4,0,0,1-2.794,0V1.394Z" transform="translate(-43.965)" fill="#070322" stroke="#070322" stroke-width="3"/>
    <path id="Path_13499" data-name="Path 13499" d="M140,1.394A1.493,1.493,0,0,1,141.394,0a1.338,1.338,0,0,1,1.394,1.394V13a1.342,1.342,0,0,1-1.394,1.394A1.5,1.5,0,0,1,140,13V1.394Z" transform="translate(-49.256)" fill="#070322" stroke="#070322" stroke-width="3"/>
    <path id="Path_13500" data-name="Path 13500" d="M155.39,1.394a1.394,1.394,0,1,1,2.787,0V13a1.394,1.394,0,1,1-2.787,0V1.394Z" transform="translate(-54.671)" fill="#070322" stroke="#070322" stroke-width="3"/>
    <path id="Path_13501" data-name="Path 13501" d="M170.79,1.394A1.338,1.338,0,0,1,172.184,0a1.5,1.5,0,0,1,1.4,1.394V13a1.5,1.5,0,0,1-1.4,1.394A1.342,1.342,0,0,1,170.79,13V1.394Z" transform="translate(-60.089)" fill="#070322" stroke="#070322" stroke-width="3"/>
    <path id="Path_13502" data-name="Path 13502" d="M185.83,1.394A1.493,1.493,0,0,1,187.224,0a1.335,1.335,0,0,1,1.394,1.394V13a1.338,1.338,0,0,1-1.394,1.394A1.5,1.5,0,0,1,185.83,13V1.394Z" transform="translate(-65.381)" fill="#070322" stroke="#070322" stroke-width="3"/>
    <path id="Path_13503" data-name="Path 13503" d="M201.22,1.394a1.394,1.394,0,1,1,2.787,0V13a1.394,1.394,0,1,1-2.787,0V1.394Z" transform="translate(-70.796)" fill="#070322" stroke="#070322" stroke-width="3"/>
    <path id="Path_13504" data-name="Path 13504" d="M178.5,207.974v13.236a10.316,10.316,0,0,1-1.854,6.028,6.3,6.3,0,0,1-4.874,2.794H160.4a6.8,6.8,0,0,0,2.32-2.794h9.055a3.5,3.5,0,0,0,2.547-1.62,6.664,6.664,0,0,0,1.394-4.408V209.367h-12.3V206.58H177.1a1.5,1.5,0,0,1,1.394,1.394h0Z" transform="translate(-56.434 -72.681)" fill="#070322" stroke="#070322" stroke-width="3"/>
    <path id="Path_13505" data-name="Path 13505" d="M99.559,125.1H9.048a6.852,6.852,0,0,0-4.408,1.62,6.333,6.333,0,0,0-1.854,4.414v63.125a5.8,5.8,0,0,0,1.854,4.174h0A5.927,5.927,0,0,0,9.048,200.3h90.51a6.395,6.395,0,0,0,6.034-6.041V131.138a6.153,6.153,0,0,0-1.627-4.181l-.233-.233a6.175,6.175,0,0,0-4.174-1.62ZM9.048,122.09h90.51a8.568,8.568,0,0,1,6.268,2.554l.233.227a9.586,9.586,0,0,1,2.547,6.268v63.125a9.21,9.21,0,0,1-2.781,6.268,8.784,8.784,0,0,1-6.268,2.781H9.048a9.315,9.315,0,0,1-6.495-2.781h0A8.994,8.994,0,0,1,0,194.264V131.138a8.582,8.582,0,0,1,2.554-6.268,8.428,8.428,0,0,1,6.495-2.781h0Z" transform="translate(0 -42.955)" fill="#070322" stroke="#070322" stroke-width="3"/>
    <path id="Path_13506" data-name="Path 13506" d="M96.6,91.084H22.341a3.529,3.529,0,0,0-3.254,1.633,7.321,7.321,0,0,0-1.62,4.408v13h83.776v-13a7.153,7.153,0,0,0-1.394-4.408A4.059,4.059,0,0,0,96.6,91.084h0ZM22.341,88.07H96.6a7.68,7.68,0,0,1,5.574,2.781,11.274,11.274,0,0,1,2.087,6.268v14.389a1.547,1.547,0,0,1-1.394,1.62h-86.8c-.927,0-1.394-.694-1.394-1.62V97.118a9.722,9.722,0,0,1,2.087-6.268,7.286,7.286,0,0,1,5.568-2.781h0Z" transform="translate(-5.165 -30.986)" fill="#070322" stroke="#070322" stroke-width="3"/>
    <path id="Path_13507" data-name="Path 13507" d="M20.928,195.314a1.494,1.494,0,0,1,1.394,1.4,1.547,1.547,0,0,1-1.394,1.62,7.243,7.243,0,0,1-4.874-2.087,6.709,6.709,0,0,1-2.094-4.874V145.891a6.317,6.317,0,0,1,2.094-4.874,6.321,6.321,0,0,1,4.874-2.087,1.493,1.493,0,0,1,1.394,1.394,1.547,1.547,0,0,1-1.394,1.62,3.95,3.95,0,0,0-3.941,3.947v45.482a3.95,3.95,0,0,0,3.941,3.941h0Z" transform="translate(-4.912 -48.88)" fill="#070322" stroke="#070322" stroke-width="3"/>
    <path id="Path_13508" data-name="Path 13508" d="M141.987,198.335a1.583,1.583,0,0,1-1.627-1.62,1.554,1.554,0,0,1,1.627-1.4,4.249,4.249,0,0,0,2.781-1.16h0a4.282,4.282,0,0,0,1.16-2.781V145.891a3.855,3.855,0,0,0-1.16-2.787,4.249,4.249,0,0,0-2.781-1.16,1.583,1.583,0,0,1-1.627-1.62,1.549,1.549,0,0,1,1.627-1.394,6.681,6.681,0,0,1,4.874,2.087,7.041,7.041,0,0,1,1.854,4.874v45.482a7.5,7.5,0,0,1-1.854,4.874h0a7.745,7.745,0,0,1-4.874,2.087h0Z" transform="translate(-49.383 -48.88)" fill="#070322" stroke="#070322" stroke-width="3"/>
  </g>
</svg>
