<svg xmlns="http://www.w3.org/2000/svg" width="189.299" height="139.199" viewBox="0 0 189.299 139.199">
  <g id="Layer_x0020_1" transform="translate(1.49 1.5)">
    <path id="Path_13476" data-name="Path 13476" d="M34.783,3.6h19.4a2.98,2.98,0,0,1,1.393.4,1.809,1.809,0,0,1,.6,1.393V130.959a2.175,2.175,0,0,1-.6,1.393,2.756,2.756,0,0,1-1.393.4H30.79c-3.411,0-7.009.4-10.4.6a65.145,65.145,0,0,1-8.589.6c-5.407,0-9.4-1.206-9.4-6.8H27.795c.6,0,1-.6,1.206-1.206v-2.808l.208-2.995A1.3,1.3,0,0,0,28,118.938H2.4v-5.594H28.585a1.3,1.3,0,0,0,1.206-1.206l.4-5.8a1.069,1.069,0,0,0-1.206-1.206H2.381v-5.8H29.77a1.121,1.121,0,0,0,1.206-1l.6-5.99a1.155,1.155,0,0,0-1.206-1.206H2.381V85.538H31.164a1.121,1.121,0,0,0,1.206-1l.6-5.99a1.155,1.155,0,0,0-1.206-1.206H2.381V71.75c5.407,0,9.8.4,13.393.6,8.8.6,13.6,1,16.388-3.6h0a1.244,1.244,0,0,0,0-1.206c-2.808-4.6-7.591-4.2-16.388-3.6-3.6.208-8.007.6-13.393.6V58.959H31.975c.6-.208,1.206-.811,1-1.393l-.6-5.594a1.061,1.061,0,0,0-1.206-1.206H2.381v-5.8h28.2a1,1,0,0,0,1-1.206l-.6-5.8c0-.6-.4-1-1.206-1H2.381v-5.8H29.167a1,1,0,0,0,1-1.206l-.4-5.8a1.3,1.3,0,0,0-1.206-1.206H2.381V17.345h25.6a1.167,1.167,0,0,0,1.206-1.206l-.208-2.995V10.336A1.3,1.3,0,0,0,27.774,9.13H2.381c0-5.594,3.993-6.8,9.4-6.8,2.808,0,5.594.208,8.589.4a92.122,92.122,0,0,0,10.4.811h3.993Zm19.4-2.392H30.79c-3.411,0-7.009-.4-10.191-.6A70.562,70.562,0,0,0,11.8,0C5,0,.01,1.789.01,9.4a3.914,3.914,0,0,0,.4,1.393,1.8,1.8,0,0,0,1.6.79h24.6l.208,3.39H2.027a1.844,1.844,0,0,0-1.6.79,2.756,2.756,0,0,0-.4,1.393v5.99a2.98,2.98,0,0,0,.4,1.393,1.8,1.8,0,0,0,1.6.79H27.42l.4,3.39H2.027a2.4,2.4,0,0,0-1.6.811,3.529,3.529,0,0,0-.4,1.393v6.01a3.94,3.94,0,0,0,.4,1.6,2.489,2.489,0,0,0,1.6.811H28.814l.4,3.2H2.027a2.465,2.465,0,0,0-1.6.79h0a3.633,3.633,0,0,0-.4,1.6v5.8a3.94,3.94,0,0,0,.4,1.6,2.465,2.465,0,0,0,1.6.79h28.2l.4,3.39H2.027a2.285,2.285,0,0,0-1.6.6,3.633,3.633,0,0,0-.4,1.6v5.99a2.98,2.98,0,0,0,.4,1.393,1.816,1.816,0,0,0,1.6.811c5.594,0,10.191-.4,14-.6h0c7.4-.6,11.6-.811,13.788,1.789-2.2,2.6-6.405,2.392-13.788,1.789-3.806-.208-8.4-.6-14-.6a1.844,1.844,0,0,0-1.6.79,2.82,2.82,0,0,0-.4,1.393v5.99a2.98,2.98,0,0,0,.4,1.393,1.8,1.8,0,0,0,1.6.79h28.6l-.4,3.411H2.027a2.465,2.465,0,0,0-1.6.79,3.529,3.529,0,0,0-.4,1.393v5.99a3.94,3.94,0,0,0,.4,1.6,2.285,2.285,0,0,0,1.6.6H29.209l-.4,3.39H2.027a2.465,2.465,0,0,0-1.6.79,3.633,3.633,0,0,0-.4,1.6v5.8a3.94,3.94,0,0,0,.4,1.6,2.465,2.465,0,0,0,1.6.79H27.816l-.4,3.411H2.027a2.285,2.285,0,0,0-1.6.6,3.633,3.633,0,0,0-.4,1.6v5.99a2.98,2.98,0,0,0,.4,1.393,1.8,1.8,0,0,0,1.6.79h24.79l-.208,3.411H2.007a1.844,1.844,0,0,0-1.6.79,2.82,2.82,0,0,0-.4,1.393c0,7.591,4.991,9.4,11.792,9.4a70.559,70.559,0,0,0,8.8-.6c3.2-.208,6.8-.6,10.191-.6h23.4a4.513,4.513,0,0,0,3.2-1.206,5.1,5.1,0,0,0,1.206-2.995V5.22a4.988,4.988,0,0,0-1.206-2.995,4.569,4.569,0,0,0-3.2-1.206h0Z" transform="translate(0 0)" fill="#070322" stroke="#070322" stroke-width="3"/>
    <g id="_1968081251808" transform="translate(75.17 28.741)">
      <path id="Path_13477" data-name="Path 13477" d="M138.367,26.786H44.906a6.617,6.617,0,0,0-4.8,2,7.007,7.007,0,0,0-1.976,4.8V98.6a7.527,7.527,0,0,0,1.976,4.97,7.337,7.337,0,0,0,4.8,1.976h93.462a7.029,7.029,0,0,0,6.946-6.946V33.586a6.558,6.558,0,0,0-2.142-4.8,6.11,6.11,0,0,0-4.8-2h0ZM44.906,24.81h93.462a9.317,9.317,0,0,1,6.281,2.475,8.719,8.719,0,0,1,2.641,6.281V98.577a9.019,9.019,0,0,1-8.922,8.922H44.906a8.388,8.388,0,0,1-6.114-2.641,8.767,8.767,0,0,1-2.641-6.281V33.566a8.767,8.767,0,0,1,2.641-6.281,8.884,8.884,0,0,1,6.114-2.475h0Z" transform="translate(-36.15 -1.954)" fill="#070322" stroke="#070322" stroke-width="3"/>
      <path id="Path_13478" data-name="Path 13478" d="M125.048,15.817H48.286a5.191,5.191,0,0,0-3.806,1.976,7.611,7.611,0,0,0-1.643,4.8V36.655h87.514V22.6a6.856,6.856,0,0,0-1.643-4.8,5.084,5.084,0,0,0-3.639-1.976h0Zm-76.762-2h76.762a7.255,7.255,0,0,1,5.3,2.641,9.625,9.625,0,0,1,1.976,6.114V37.633a.959.959,0,0,1-1,1H41.818a1.073,1.073,0,0,1-1-1V22.576a9.767,9.767,0,0,1,2.163-6.114,6.629,6.629,0,0,1,5.282-2.641h0Z" transform="translate(-31.108 -13.82)" fill="#070322" stroke="#070322" stroke-width="3"/>
      <path id="Path_13479" data-name="Path 13479" d="M47.294,88.441a.959.959,0,0,1,1,1,1.074,1.074,0,0,1-1,1,6.733,6.733,0,0,1-4.638-1.976H42.49a7.1,7.1,0,0,1-1.83-4.638V36.844a6.028,6.028,0,0,1,2-4.638,6,6,0,0,1,4.638-2,.959.959,0,0,1,1,1,1.074,1.074,0,0,1-1,1,4.547,4.547,0,0,0-4.638,4.638v46.98a4.5,4.5,0,0,0,1.331,3.14h0a4.736,4.736,0,0,0,3.307,1.5h0Z" transform="translate(-31.281 3.876)" fill="#070322" stroke="#070322" stroke-width="3"/>
      <path id="Path_13480" data-name="Path 13480" d="M82.4,90.449a.959.959,0,0,1-1-1,.882.882,0,0,1,1-1,4.679,4.679,0,0,0,3.14-1.5,4.057,4.057,0,0,0,1.5-3.14V36.834a4.147,4.147,0,0,0-1.5-3.307A4.535,4.535,0,0,0,82.4,32.2a.959.959,0,0,1-1-1,.882.882,0,0,1,1-1,6.594,6.594,0,0,1,4.638,1.809,7.337,7.337,0,0,1,1.976,4.8v46.98a6.693,6.693,0,0,1-1.976,4.638A6.6,6.6,0,0,1,82.4,90.407h0Z" transform="translate(12.706 3.865)" fill="#070322" stroke="#070322" stroke-width="3"/>
    </g>
  </g>
</svg>
