<svg xmlns="http://www.w3.org/2000/svg" width="123.631" height="65.787" viewBox="0 0 123.631 65.787">
  <g id="Layer_x0020_1" transform="translate(0.01 0.016)">
    <path id="Path_13521" data-name="Path 13521" d="M75.809,35.782c0-15.763,19.1-23.826,30.121-12.733a17.622,17.622,0,0,1,2.289,22.689,7.571,7.571,0,0,1-.959,1.22,16.487,16.487,0,0,1-6.093,4.772c-6.085,2.988-14.181,1.986-19.138-2.6-3.855-3.56-6.219-7.473-6.219-13.339Zm-63.5,0c0-16.807,21.579-24.743,32.149-10.419,5.151,6.977,4.258,16.226-1.692,22.765l-2.348,2a17.733,17.733,0,0,1-21.907-.993,16.5,16.5,0,0,1-4.679-6.186,17.531,17.531,0,0,1-1.523-7.162ZM53.844,10.433H69.775a3.381,3.381,0,1,1,0,6.758H53.844A3.381,3.381,0,1,1,53.844,10.433ZM0,34.335c0,7.574,1.3,12.573,5.361,18.549a30.084,30.084,0,0,0,39.875,8.812c.825-.488,1.405-.884,2.188-1.431a30.711,30.711,0,0,0,9.8-11.69,28.068,28.068,0,0,0,2.9-13.524h3.383a29.647,29.647,0,0,0,5.353,17.825C73.79,60.1,83.266,65.718,91.993,65.718c4.048,0,5.2.118,9.224-.917,1.086-.278,1.717-.513,2.76-.867a30.371,30.371,0,0,0,14.088-10.781c4.141-5.866,5.555-11.261,5.555-18.835,0-11.6-8.887-23.27-20.072-27.015a28.6,28.6,0,0,0-9.872-1.717c-3.265.008-8.845.337-11.841.008-.842-.093-2.323-1.338-3.653-2.138-7.919-4.738-25.6-4.814-34.253.926a6.369,6.369,0,0,1-1.953,1.187c-6.211,1.136-18.288-2.8-29.54,5.706C7.96,14.658,3.979,19.144,2.069,24.564A27.866,27.866,0,0,0-.01,34.318Z" transform="translate(0 0)" fill="#aa8453" fill-rule="evenodd"/>
  </g>
</svg>
