<svg xmlns="http://www.w3.org/2000/svg" width="120.052" height="161.195" viewBox="0 0 120.052 161.195">
  <g id="Layer_x0020_1" transform="translate(0)">
    <path id="Path_13490" data-name="Path 13490" d="M410.819,83.58c2.335,0,2.993,1.609,2.131,3.348l-3.878,7.828c-.613,1.24-1.431,2.517-2.814,2.517h3.1c1.381,0,1.6-1.277,2.214-2.517l3.878-7.828c.86-1.738.8-3.348-1.531-3.348ZM384.4,81.84h32.35c2.335,0,2.978,1.6,2.131,3.349L413.4,96.5c-.6,1.242-1.134,2.513-2.515,2.513H390.255c-1.379,0-1.91-1.269-2.513-2.513l-5.479-11.311C381.417,83.441,382.059,81.84,384.4,81.84Z" transform="translate(-340.545 -72.977)" fill="#070322" fill-rule="evenodd"/>
    <path id="Path_13491" data-name="Path 13491" d="M459.052,0c5.1,0,9.5,2.391,11.562,5.852H447.49C449.552,2.391,453.952,0,459.054,0Z" transform="translate(-399.025)" fill="#070322" fill-rule="evenodd"/>
    <path id="Path_13492" data-name="Path 13492" d="M485.057,272.2h12.926a1.163,1.163,0,0,1,1.155,1.157v3.778H483.9v-3.778A1.161,1.161,0,0,1,485.057,272.2Z" transform="translate(-431.492 -242.72)" fill="#070322" fill-rule="evenodd"/>
    <path id="Path_13493" data-name="Path 13493" d="M60.027,404.924a52.461,52.461,0,0,0-20.871,28.524,60.454,60.454,0,0,1,20.869,15.625A60.37,60.37,0,0,1,80.9,433.446a52.44,52.44,0,0,0-20.868-28.522ZM88.58,438.819l.347-.114,1.143-.364-.218-1.178a60.259,60.259,0,0,0-29.145-41.071l-.678-.393-.678.393A60.255,60.255,0,0,0,30.2,437.163l-.22,1.178,1.146.364.291.094.824.3a52.453,52.453,0,0,1,23.541,17.186c.465.6.918,1.209,1.354,1.83l.157.222.134.194.542.793.019.036.075.1.444.69,1.512,2.408,1.383-2.2.341-.531.261-.4.422-.624.481-.688q.655-.932,1.353-1.83A52.437,52.437,0,0,1,87.807,439.1l.774-.279Zm22.236,10.961A52.383,52.383,0,0,0,65.477,489.44l-.323,1.536c-.355,1.669-.625,3.357-.813,5.055l-.128,1.149-1.156.056q-1.517.075-3.032.076c-.983,0-1.971-.025-2.958-.073l-1.157-.056-.126-1.15a52.146,52.146,0,0,0-3.092-12.8l-.038,0-.341-.853a52.385,52.385,0,0,0-43.079-32.6,52.436,52.436,0,0,0,35.36,37.372l.669.2.22.667a44.41,44.41,0,0,1,1.506,5.915l.378,2.074-2.046-.513A60.227,60.227,0,0,1,.144,443.18L0,441.743l1.446-.056c.756-.027,1.511-.042,2.269-.042a60.22,60.22,0,0,1,56.31,38.9,60.228,60.228,0,0,1,56.313-38.9c.754,0,1.511.017,2.268.046l1.446.053-.144,1.437a60.226,60.226,0,0,1-45.1,52.3l-2.05.517.379-2.079a44.075,44.075,0,0,1,1.513-5.922l.22-.66.667-.209a52.433,52.433,0,0,0,35.279-37.346ZM60.024,384.79A52.348,52.348,0,0,0,8.156,430.108L8,431.286H.1l.185-1.523a60.188,60.188,0,0,1,119.472,0l.186,1.523h-7.9l-.159-1.178a52.346,52.346,0,0,0-51.87-45.318Z" transform="translate(0 -336.116)" fill="#070322" fill-rule="evenodd"/>
  </g>
</svg>
