<svg xmlns="http://www.w3.org/2000/svg" width="134.589" height="134.589" viewBox="0 0 134.589 134.589">
  <g id="Layer_x0020_1" transform="translate(-66.01 -66)">
    <path id="Path_13482" data-name="Path 13482" d="M83.791,93.743A62.368,62.368,0,0,0,69.809,133.2a66.719,66.719,0,0,0,3.449,20.68V160.4A67.125,67.125,0,0,1,67.51,133.2,65.8,65.8,0,0,1,83.791,89.916v3.827ZM133.21,67.5a65.793,65.793,0,0,1,0,131.585,68.374,68.374,0,0,1-16.663-2.107v-.2a3.753,3.753,0,0,0,1.146-2.107,59.309,59.309,0,0,0,15.517,1.914A63.382,63.382,0,0,0,178.026,88.376,63.58,63.58,0,0,0,133.21,69.992a64.338,64.338,0,0,0-25.857,5.363v-.772c0-.382-.2-1.15-.2-1.725A65.364,65.364,0,0,1,133.21,67.5h0Z" transform="translate(0 0)" fill="#070322" stroke="#070322" stroke-width="3"/>
    <path id="Path_13483" data-name="Path 13483" d="M196.637,102.26A52.388,52.388,0,1,1,181.12,204.74v-2.492a52.745,52.745,0,0,0,15.517,2.492,50.088,50.088,0,1,0-25.857-92.9v-2.878a53.557,53.557,0,0,1,25.857-6.705h0Z" transform="translate(-63.427 -21.349)" fill="#070322" stroke="#070322" stroke-width="3"/>
    <path id="Path_13484" data-name="Path 13484" d="M124.268,167.116H102.242A3.323,3.323,0,0,0,98.6,170.75v20.687H127.91V170.75a3.47,3.47,0,0,0-1.146-2.678,3.64,3.64,0,0,0-2.492-.957h0Zm-22.026-2.3h22.026a5.648,5.648,0,0,1,4.217,1.721,6.07,6.07,0,0,1,1.721,4.209v21.841a1.236,1.236,0,0,1-1.15,1.15H97.45a1.106,1.106,0,0,1-1.15-1.15V170.75a5.882,5.882,0,0,1,5.938-5.93h0Z" transform="translate(-17.682 -59.773)" fill="#070322" stroke="#070322" stroke-width="3"/>
    <path id="Path_13485" data-name="Path 13485" d="M122.448,236.123H86.822a1.978,1.978,0,0,0-2.107,2.1v57.652a1.978,1.978,0,0,0,2.107,2.107h35.626a2.192,2.192,0,0,0,1.536-.575,2.362,2.362,0,0,0,.764-1.532V238.226a2.344,2.344,0,0,0-.764-1.528,2.169,2.169,0,0,0-1.536-.575Zm-35.626-2.3h35.626a4.478,4.478,0,0,1,3.256,1.154,4.834,4.834,0,0,1,1.146,3.252v57.652a4.347,4.347,0,0,1-1.146,3.06,3.925,3.925,0,0,1-3.256,1.346H86.822a3.8,3.8,0,0,1-3.063-1.346,4.518,4.518,0,0,1-1.339-3.06V238.226a5,5,0,0,1,1.339-3.252,4.318,4.318,0,0,1,3.063-1.154Z" transform="translate(-9.158 -102.152)" fill="#070322" stroke="#070322" stroke-width="3"/>
    <path id="Path_13486" data-name="Path 13486" d="M129.826,75.269,114.5,86.377l-.764.575c-.957.575-1.721,1.146-1.721,2.3V108.4h18.963V77.943a4.677,4.677,0,0,0-.768-2.3c-.189-.193-.189-.382-.382-.382h0Zm-16.663,9.19,15.321-11.108a1.618,1.618,0,0,1,1.343-.382,4.957,4.957,0,0,1,1.339.382c.189.193.571.575.957.957a8.1,8.1,0,0,1,1.15,3.634v31.606a1.24,1.24,0,0,1-1.15,1.15H110.86a1.106,1.106,0,0,1-1.15-1.15v-20.3c0-2.3,1.339-3.26,2.685-4.217l.764-.571Z" transform="translate(-25.919 -3.36)" fill="#070322" stroke="#070322" stroke-width="3"/>
    <path id="Path_13487" data-name="Path 13487" d="M150.42,104.4a1.015,1.015,0,0,1,1.15-1.15,1.1,1.1,0,0,1,1.146,1.15v18.774a1.239,1.239,0,0,1-1.146,1.15,1.1,1.1,0,0,1-1.15-1.15V104.4Z" transform="translate(-50.922 -21.957)" fill="#070322" stroke="#070322" stroke-width="3"/>
    <path id="Path_13488" data-name="Path 13488" d="M129.765,275.19a1.24,1.24,0,0,1,1.154-1.15,1.1,1.1,0,0,1,1.146,1.15V308.13a1.014,1.014,0,0,1-1.146,1.15H106.4a1.1,1.1,0,0,1-1.15-1.15,1.236,1.236,0,0,1,1.15-1.15h23.365Z" transform="translate(-23.179 -126.854)" fill="#070322" stroke="#070322" stroke-width="3"/>
    <path id="Path_13489" data-name="Path 13489" d="M292.8,163.788a1.164,1.164,0,0,1,1.728-1.532,37.833,37.833,0,0,1,2.489,3.252,44.112,44.112,0,0,1-6.894,59.184c-1.146.957-2.3,1.725-3.256,2.689A1.244,1.244,0,0,1,285.15,227a1.062,1.062,0,0,1,.382-1.536,35.384,35.384,0,0,0,3.063-2.489,42.144,42.144,0,0,0,14.175-26.818,42.676,42.676,0,0,0-7.469-29.306c-.764-1.146-1.725-2.1-2.492-3.06h0Z" transform="translate(-133.548 -57.973)" fill="#070322" stroke="#070322" stroke-width="3"/>
  </g>
</svg>
