<svg xmlns="http://www.w3.org/2000/svg" width="159.755" height="159.755" viewBox="0 0 159.755 159.755">
  <path id="Path_108" data-name="Path 108" d="M10529.624,275.361h39.938V346.5h-39.938Zm-37.442-38.691h32.45V346.5h-32.45V236.671ZM10446,275.361h41.188V346.5H10446Zm83.622-38.691h53.667v33.7h-53.667Zm-96.1,0h53.668v33.7h-53.668Zm25.9-22.777c0-4.848.129-7.439,3.027-11.326a12.97,12.97,0,0,1,7.066-4.79c6.737-2.184,14.362-.086,18.8,3.139a41.365,41.365,0,0,1,8.863,8.922c4.038,5.755,8.426,14.6,8.426,21.84h-24.961c-6.255,0-11.35-1.569-14.746-4.6a14.919,14.919,0,0,1-4.291-5.383A17.868,17.868,0,0,1,10459.419,213.893Zm76.758,17.785h-24.963c0-7.739,4.693-16.951,9.355-23.1,13.786-18.171,36.825-13.638,36.825,2.814C10557.395,224.188,10549.5,231.678,10536.177,231.678Zm-82.062-19.345a26,26,0,0,0,2.7,11.341,20.4,20.4,0,0,0,2.816,4.36,43.78,43.78,0,0,0,3.531,3.645h-27.77c-3.219,0-6.864-.745-6.864,2.5v38.691a2.346,2.346,0,0,0,2.5,2.5h9.984V349a2.346,2.346,0,0,0,2.5,2.5h128.553a2.347,2.347,0,0,0,2.5-2.5V275.362h11.232a2.347,2.347,0,0,0,2.5-2.5V234.175c0-3.184-3.415-2.5-6.553-2.5h-28.081c.493-.674,2.053-1.6,3.438-3.426,12.436-16.375,2.888-36.513-14.672-36.513-13.473,0-21.787,7.318-28.769,17.722-1.622,2.416-4.21,6.957-4.93,10.048h-.624c-.915-3.927-4.006-8.662-6.174-11.924-.57-.858-1.047-1.379-1.624-2.12-5.225-6.694-14.077-13.727-23.092-13.727h-.872c-4.2,0-6.178.078-10.415,1.818-7.492,3.077-11.8,10.427-11.8,18.775Z" transform="translate(-10428.529 -191.74)" fill-rule="evenodd"/>
</svg>
