<svg xmlns="http://www.w3.org/2000/svg" width="16.727" height="8.466" viewBox="0 0 16.727 8.466">
  <path id="Path_312" data-name="Path 312" d="M24609.309,2885.345a8.219,8.219,0,0,0,4.055-.7,8.524,8.524,0,0,0,3.877-3.444,6.14,6.14,0,0,0,.973-3.083,1.436,1.436,0,0,0-2.453-.777c-.645.643-.117,1.252-1.488,3.1a5.5,5.5,0,0,1-3.994,2.091,5.02,5.02,0,0,1-3.234-.735c-3.152-1.715-2.049-4.909-4.086-4.909a1.6,1.6,0,0,0-1.352.854c-.547,1.194.922,3.581,1.754,4.652a8.414,8.414,0,0,0,5.949,2.96Z" transform="translate(-24601.486 -2876.88)" fill-rule="evenodd"/>
</svg>
