<svg xmlns="http://www.w3.org/2000/svg" width="75.445" height="103.79" viewBox="0 0 75.445 103.79">
  <path id="Path_13522" data-name="Path 13522" d="M17.082,39.968c-.625-1.3-.91-3.564-2.4-6.541l-2.394-4.311c-.44-.808-.248-.823-.921-1.315-.388,1.662-.654,3.475-1.012,5.2A50.384,50.384,0,0,1,5.493,47a51.805,51.805,0,0,0-3.778,8.637C-1.333,65.559-.436,77.382,5.208,86.1c4.336,6.7,9.753,11.938,17.228,15.05a56.454,56.454,0,0,0,5.818,2.377c-.615-2.64-9.959-11.81-5.553-26.659.742-2.5,1.807-4.415,2.546-6.641a45.631,45.631,0,0,0,2.76-15.615c2.47.659,4.992,9.9,5.422,12.953.258,1.838.4,3.763.786,5.422L36.531,68.6c4.018-8.035,5.378-16.136,2.814-25.078-.305-1.064-.717-1.984-.91-2.815,3.883,2.6,9.1,9.5,11.343,13.985,6.616,13.224,6.931,30.016-.809,42.981l-3.333,6.1c7.212-3.817,10.9-5.564,16.326-10.987.786-.786,1.492-1.426,2.237-2.232A46.463,46.463,0,0,0,72.672,76.19,54.787,54.787,0,0,0,70.63,36.574a74.265,74.265,0,0,0-10.84-17.218,51.435,51.435,0,0,1-.464,9.468c-.416,1.986-2.015,6.007-3.261,6.921-.533-6.406-5.621-16.61-9.187-21.354-.55-.732-1.025-1.317-1.63-2.094a35.985,35.985,0,0,0-5.715-5.956C37.692,4.91,32.6.482,30.49-.01c0,12.046-3.173,22.146-8.108,31.869-.8,1.573-4.269,7.352-5.3,8.108Z" transform="translate(0.008 0.01)" fill="#aa8453" fill-rule="evenodd"/>
</svg>
