<svg xmlns="http://www.w3.org/2000/svg" width="39.502" height="40.215" viewBox="0 0 39.502 40.215">
  <path id="Path_314" data-name="Path 314" d="M1949.875,2719.227a9.821,9.821,0,0,1,1.68-5.546c2.972-4.458,9.461-5.656,13.616-2.523a9.719,9.719,0,0,1,3.321,11.916,7.91,7.91,0,0,1-.375.8,9.662,9.662,0,0,1-4.468,4.1,10.353,10.353,0,0,1-3.966.9c-.147.009-.81-.052-1.084-.071a8.772,8.772,0,0,1-1.085-.17,9.937,9.937,0,0,1-4.724-2.584l-.04-.039-.076-.082c-.068-.073-.076-.089-.148-.166-.119-.125-.2-.188-.313-.315a10.325,10.325,0,0,1-1.441-2.25,10.436,10.436,0,0,1-.9-3.975h0Zm9.595-15.237h.671a14.076,14.076,0,0,1,7.051,2.005c.422.256.777.451,1.156.73,1.147.846,1.469,1.291,2,1.7a7.4,7.4,0,0,1,.886,1l.829,1.057a11.872,11.872,0,0,1,.727,1.156,15.26,15.26,0,0,1,1.991,7.2,15.667,15.667,0,0,1-2.482,8.593c-.164.238-.2.184-.268.44l1.474,1.511c1.715,1.513,4.678,4.6,6.362,6.286.885.885,3.328,3.119,3.792,4.065a3.178,3.178,0,0,1-2.673,4.476c-2,0-2.524-.991-4.144-2.609-.552-.554-1.062-.987-1.61-1.532-.8-.8-7.545-7.624-7.913-7.875a18.288,18.288,0,0,1-3.175,1.379,14.129,14.129,0,0,1-5.23.665,14.907,14.907,0,0,1-5.943-1.52,18.284,18.284,0,0,1-2.834-1.8c-.2-.181-.319-.245-.513-.431-.323-.309-.584-.587-.9-.9a14.838,14.838,0,0,1-3.884-7.268c-.126-.538-.161-.982-.254-1.633l-.126-1.685c-.009-.37.079-.429.083-.86a14.98,14.98,0,0,1,4.3-9.6,11.161,11.161,0,0,1,.974-.914,15.041,15.041,0,0,1,3.321-2.177c.473-.193.85-.392,1.33-.553a16.786,16.786,0,0,1,5.01-.892h0Z" transform="translate(-1944.452 -2703.99)" fill-rule="evenodd"/>
</svg>
