<svg xmlns="http://www.w3.org/2000/svg" width="39.32" height="39.323" viewBox="0 0 39.32 39.323">
  <path id="Path_313" data-name="Path 313" d="M25508.639,2741.288a10.408,10.408,0,0,1,1.18-3.892,10.762,10.762,0,0,1,2.848-3.448,11.323,11.323,0,0,1,6.494-2.491,10.733,10.733,0,0,1,5.168.975,11.188,11.188,0,0,1,5.979,6.7,7.445,7.445,0,0,1,.451,2.083c0,.331-1.928,1.492-2.137,1.627a15.707,15.707,0,0,1-2.5,1.259,18.906,18.906,0,0,1-6.348,1.259l-1.742-.1a18.46,18.46,0,0,1-4.639-1.12,17.563,17.563,0,0,1-3.686-2,7.646,7.646,0,0,1-1.064-.857Zm10-32.948h2.121a19.966,19.966,0,0,1,3.746.567c.658.165,1.211.34,1.824.555a20.035,20.035,0,0,1,4.7,2.443,19.563,19.563,0,0,1,8.324,15.3v1.5a20.232,20.232,0,0,1-1.123,5.93,14.545,14.545,0,0,1-.693,1.687,19.594,19.594,0,0,1-9.572,9.55,18.694,18.694,0,0,1-7.975,1.791h-.6a18.68,18.68,0,0,1-8.02-1.817,19.58,19.58,0,0,1-9.549-9.575,19.833,19.833,0,0,1,1.775-19.6,19.9,19.9,0,0,1,15.039-8.327Zm-4.854,15.054a5.3,5.3,0,0,1,.609-3,5.921,5.921,0,0,1,7.635-2.791,5.8,5.8,0,0,1,2.941,2.74,5.938,5.938,0,0,1-8.625,7.626,2.526,2.526,0,0,1-.393-.3,5.735,5.735,0,0,1-1.609-2A5.429,5.429,0,0,1,25513.787,2723.394Zm-2.385-.539a8.528,8.528,0,0,0,2.8,6.42,3.062,3.062,0,0,0,.813.569c-.131.177-1.912.859-2.885,1.568l-1.248.978a12.209,12.209,0,0,0-1.682,1.7,13.8,13.8,0,0,0-1.354,2.029c-.15.3-.242.395-.369.705a15.581,15.581,0,0,0-.781,2.061c-.105.36.037.231-.207.409l-2.125-3.252a17.175,17.175,0,0,1-.436-15.206c.105-.226.154-.393.254-.591a19.2,19.2,0,0,1,3.256-4.5,17.58,17.58,0,0,1,10.73-5.013c.246-.02.5.011.754-.016,3.664-.405,8.434,1.284,11.266,3.5.3.239.563.436.855.681.605.509,1.051,1.047,1.578,1.57l1.385,1.764c.215.293.412.634.6.939l1.061,2.089a17.45,17.45,0,0,1,.576,11.924c-.285.862-.549,1.483-.881,2.264l-1.775,2.911a4.3,4.3,0,0,0-.676.938,7.329,7.329,0,0,1-.611-1.614c-.109-.279-.205-.466-.33-.747a13.207,13.207,0,0,0-6.045-6.318,12.778,12.778,0,0,1-1.539-.768,2.912,2.912,0,0,0,.781-.525,9.227,9.227,0,0,0,1.752-2.166,8.211,8.211,0,0,0,.334-7.474,5.488,5.488,0,0,0-.326-.671,8.49,8.49,0,0,0-3.588-3.4,8.314,8.314,0,0,0-11.687,5.494,7.155,7.155,0,0,0-.246,1.752h0Z" transform="translate(-25500.039 -2708.34)" fill-rule="evenodd"/>
</svg>
