<svg xmlns="http://www.w3.org/2000/svg" width="362" height="101.155" viewBox="0 0 362 101.155">
  <g id="Layer_x0020_1" transform="translate(-0.047 -0.002)">
    <g id="_1380130822496" transform="translate(125.147 3.059)">
      <path id="Path_13524" data-name="Path 13524" d="M222.057,95.8A42.55,42.55,0,1,1,264.6,53.249,42.546,42.546,0,0,1,222.057,95.8ZM267.3,75.05c1.536-3.175-2.119-8.25-1.318-11.767.779-3.408,6.284-6.379,6.284-10.027s-5.512-6.619-6.284-10.034c-.8-3.524,2.854-8.585,1.318-11.76-1.558-3.233-7.806-3.524-10.019-6.3s-1.129-8.942-3.91-11.17a6.048,6.048,0,0,0-3.852-.983c-1.529,0-3.189.2-4.719.2a7.549,7.549,0,0,1-3.2-.561c-3.175-1.529-4.85-7.566-8.374-8.374a3.625,3.625,0,0,0-.794-.08c-3.248,0-7.019,4-10.384,4s-7.143-4-10.384-4a3.625,3.625,0,0,0-.794.08c-3.517.8-5.192,6.83-8.374,8.367a7.385,7.385,0,0,1-3.189.553c-1.536,0-3.2-.2-4.718-.2a6.049,6.049,0,0,0-3.845.99c-2.789,2.228-1.689,8.388-3.918,11.177s-8.468,3.066-10.02,6.291c-1.536,3.175,2.119,8.243,1.318,11.76-.779,3.415-6.284,6.393-6.284,10.034s5.512,6.619,6.284,10.027c.8,3.517-2.854,8.585-1.318,11.76,1.558,3.233,7.813,3.524,10.02,6.3,2.228,2.782,1.129,8.942,3.91,11.17a6.026,6.026,0,0,0,3.852.99c1.529,0,3.189-.2,4.718-.2a7.384,7.384,0,0,1,3.189.561c3.175,1.529,4.857,7.558,8.367,8.359a3.7,3.7,0,0,0,.8.087c3.24,0,7.012-4,10.384-4s7.136,4,10.376,4a3.632,3.632,0,0,0,.794-.087c3.517-.8,5.2-6.83,8.374-8.359a7.364,7.364,0,0,1,3.189-.561c1.529,0,3.2.211,4.726.211a6.093,6.093,0,0,0,3.852-.983c2.782-2.235,1.689-8.388,3.918-11.177s8.469-3.066,10.019-6.291Z" transform="translate(-171.85 -4.2)" fill="#aa8453"/>
      <path id="Path_13525" data-name="Path 13525" d="M226.534,93.581A36.281,36.281,0,1,1,262.818,57.3,36.283,36.283,0,0,1,226.534,93.581Zm0-74.491A38.21,38.21,0,1,0,264.748,57.3,38.255,38.255,0,0,0,226.534,19.09Z" transform="translate(-176.327 -8.248)" fill="#aa8453"/>
      <text id="Secured" transform="translate(30.707 41.665)" fill="#aa8453" font-size="10" font-family="Roboto" font-weight="700" font-style="italic"><tspan x="0" y="0">Secured</tspan></text>
      <text id="Online" transform="translate(35.447 56.01)" fill="#aa8453" font-size="10" font-family="Roboto" font-weight="700" font-style="italic"><tspan x="0" y="0">Online</tspan></text>
      <text id="Shopping" transform="translate(27.401 70.348)" fill="#aa8453" font-size="10" font-family="Roboto" font-weight="700" font-style="italic"><tspan x="0" y="0">Shopping</tspan></text>
      <g id="Group_501" data-name="Group 501" transform="translate(40.209 14.811)">
        <path id="Path_13526" data-name="Path 13526" d="M242.882,34.1a3.506,3.506,0,0,1,1.325-2.913L241.28,28.54V39.652h4.733V37.234a3.139,3.139,0,0,1-3.138-3.138Z" transform="translate(-230.933 -25.627)" fill="#aa8453"/>
        <path id="Path_13527" data-name="Path 13527" d="M250.921,34.1a3.506,3.506,0,0,0-1.325-2.913l2.927-2.643V39.652H247.79V37.234a3.139,3.139,0,0,0,3.138-3.138Z" transform="translate(-232.702 -25.627)" fill="#aa8453"/>
        <path id="Path_13528" data-name="Path 13528" d="M229.872,34.1a3.506,3.506,0,0,1,1.325-2.913L228.27,28.54V39.652h4.74V37.234a3.139,3.139,0,0,1-3.138-3.138Z" transform="translate(-227.396 -25.627)" fill="#aa8453"/>
        <path id="Path_13529" data-name="Path 13529" d="M237.911,34.1a3.506,3.506,0,0,0-1.325-2.913l2.927-2.643V39.652H234.78V37.234a3.139,3.139,0,0,0,3.138-3.138Z" transform="translate(-229.166 -25.627)" fill="#aa8453"/>
        <path id="Path_13530" data-name="Path 13530" d="M247.217,47.841l-9.444-.816-9.5.546V45.38h18.947Z" transform="translate(-227.396 -30.205)" fill="#aa8453"/>
        <path id="Path_13531" data-name="Path 13531" d="M242.047,25.763a1.223,1.223,0,1,1-1.223-1.223A1.228,1.228,0,0,1,242.047,25.763Z" transform="translate(-230.476 -24.54)" fill="#aa8453"/>
        <path id="Path_13532" data-name="Path 13532" d="M254.832,26.361a.881.881,0,1,1-.881-.881A.884.884,0,0,1,254.832,26.361Z" transform="translate(-234.138 -24.796)" fill="#aa8453"/>
        <path id="Path_13533" data-name="Path 13533" d="M227.07,26.361a.881.881,0,1,0,.881-.881A.884.884,0,0,0,227.07,26.361Z" transform="translate(-227.07 -24.796)" fill="#aa8453"/>
      </g>
    </g>
    <g id="_1380130790816" transform="translate(0.047 0.002)">
      <path id="Path_13534" data-name="Path 13534" d="M92.693,52.4A42.966,42.966,0,0,1,58.564,91.924a42.98,42.98,0,0,1-47.1-24.131,42.948,42.948,0,0,1,13.7-51.976c15.575-11.527,37.944-10.573,52.624,2a42.919,42.919,0,0,1,11.4,15.357c2.723,6.211,3.5,12.51,3.5,19.231-.029.539,0-.007,0,0Zm7.726-2.184a5.581,5.581,0,0,0-1.238-3.16,18.624,18.624,0,0,0-1.223-1.5c-.633-.721-1.049-.7-.539-1.631,1.289-2.374,2.614-5.09.539-7.442a14.85,14.85,0,0,0-2.884-2.337,13.447,13.447,0,0,0,.757-4c-.058-2.731-2.49-3.947-4.711-4.864-.808-.335-1.143-.16-1.1-1.121.036-.655.058-1.311.051-1.966a6.764,6.764,0,0,0-.728-3.379,4.59,4.59,0,0,0-2.665-1.893,11.661,11.661,0,0,0-1.791-.43c-1.274-.218-1.187-.2-1.434-1.464-.466-2.337-1.391-4.456-3.954-4.915a15.934,15.934,0,0,0-3.772-.066c-1.158.066-1.587-2.214-2.17-3.2a4.654,4.654,0,0,0-5.286-2.388,17.249,17.249,0,0,0-1.922.481c-.968.284-.859-.124-1.413-.859A7.536,7.536,0,0,0,61.9,1.4c-2.308-.9-4.806.83-6.728,1.915C53.38,1.726,51.115-.633,48.465.161a8.484,8.484,0,0,0-3,1.864c-.7.6-.677,1.027-1.566.539a18.368,18.368,0,0,0-1.784-.874c-2.447-1-4.369-.328-6.036,1.653-.692.823-1.325,2.541-2.417,2.243a15.692,15.692,0,0,0-3.7-.721c-2.658-.08-4,1.864-4.937,4.085-.328.757-.153,1.107-1.056,1.056-.612-.036-1.223-.051-1.842-.029a5.462,5.462,0,0,0-3.211.976,5.166,5.166,0,0,0-1.58,2.614c-.32,1.041-.233,3.415-1.311,3.6-2.017.35-4.675.728-5.782,2.709a6.663,6.663,0,0,0-.633,3.32c.007.641.051,1.289.1,1.922a22.143,22.143,0,0,0-2.119.954c-2.2,1.15-3.277,2.847-2.891,5.367.167,1.085,1.282,3.167.386,3.808a14.577,14.577,0,0,0-3.051,2.651c-1.689,2.141-.786,4.536.408,6.677.517.932.036.947-.575,1.7A11.378,11.378,0,0,0,.7,47.913,4.338,4.338,0,0,0,.37,51.831a11.238,11.238,0,0,0,2.112,3.044c.641.721,1.049.7.539,1.631-.342.626-.677,1.26-.968,1.915-1.231,2.774-.6,4.893,1.755,6.735.51.393,1.034.765,1.566,1.121-.2.684-.393,1.369-.539,2.068A5.708,5.708,0,0,0,5,72a5.2,5.2,0,0,0,2.206,2.134,15.6,15.6,0,0,0,1.566.772c.867.379,1.7.32,1.653,1.362-.109,2.221-.3,5.09,1.791,6.51a8.677,8.677,0,0,0,3.35,1.165c.859.153,1.15-.109,1.318.83a16.325,16.325,0,0,0,.583,2.425c.859,2.476,2.825,3.262,5.316,3.262.648,0,1.3-.029,1.944-.073.954-.058.786.284,1.129,1.085a11.116,11.116,0,0,0,2,3.4c1.7,1.769,4.129,1.245,6.248.612,1.129-.335,1.813,1.464,2.621,2.272a4.651,4.651,0,0,0,2.731,1.485,6.379,6.379,0,0,0,3.357-.8c.626-.3,1.238-.633,1.85-.983.917-.517.954-.036,1.682.59,1.733,1.5,3.794,3.036,6.16,2.024a10.87,10.87,0,0,0,2.964-2.1c.845-.765,2.381.626,3.444.983,2.243.75,4-.146,5.454-1.879.692-.823,1.325-2.541,2.417-2.235a15.391,15.391,0,0,0,3.706.721c2.658.08,3.99-1.864,4.944-4.078.32-.757.153-1.114,1.056-1.056a17.281,17.281,0,0,0,1.842.029,5.484,5.484,0,0,0,3.218-.976c1.74-1.4,1.959-4.07,2.286-6.1,2.046-.357,4.726-.6,6.095-2.381a5.38,5.38,0,0,0,.925-3.138c.022-.626-.007-1.26-.044-1.893-.058-.939.255-.757,1.041-1.107,2.017-.9,3.976-2.141,4.019-4.58a13.927,13.927,0,0,0-.765-4.034c-.291-.99.029-.859.779-1.413.481-.35.954-.714,1.405-1.107,1.893-1.653,2.614-3.6,1.66-6.007a15.108,15.108,0,0,0-.91-1.857c-.517-.932-.036-.939.583-1.689a6.525,6.525,0,0,0,1.842-3.947Z" transform="translate(-0.047 -0.002)" fill="#aa8453"/>
      <path id="Path_13535" data-name="Path 13535" d="M54.486,17.69A36.787,36.787,0,1,0,91.273,54.476,36.83,36.83,0,0,0,54.486,17.69Zm0,75.5A38.716,38.716,0,1,1,93.2,54.476,38.758,38.758,0,0,1,54.486,93.193Z" transform="translate(-4.321 -4.286)" fill="#aa8453"/>
      <path id="Path_13536" data-name="Path 13536" d="M67.5,39.937S63.659,33.959,70.788,29.4c5.913-3.779,6.91-6.32,6.91-6.32s5.454,8.206,2.126,14.2c-2.752,4.959-10.187,3.786-10.187,3.786s8.308-4.209,6.837-11.76c0,0-1.893,7.456-8.978,10.631Z" transform="translate(-18.103 -6.275)" fill="#aa8453"/>
      <path id="Path_13537" data-name="Path 13537" d="M63.216,41.785s-9.575-.9-8.621-8.228a30.831,30.831,0,0,0,.24-5.956s6.335,2.687,7.07,4.748-.845,4.449.823,7.813c0,0-4.5-5.068-5.337-7.551a10.362,10.362,0,0,0,5.818,9.175Z" transform="translate(-14.857 -7.504)" fill="#aa8453"/>
      <path id="Path_13538" data-name="Path 13538" d="M26.683,59.15l.626,1.922h2.017L27.7,62.259l.619,1.922-1.631-1.187-1.631,1.187.619-1.922L24.04,61.072h2.024Z" transform="translate(-6.569 -16.081)" fill="#aa8453"/>
      <path id="Path_13539" data-name="Path 13539" d="M109.233,59.15l-.626,1.922H106.59l1.631,1.187-.619,1.922,1.631-1.187,1.631,1.187-.619-1.922,1.624-1.187h-2.017Z" transform="translate(-29.01 -16.081)" fill="#aa8453"/>
      <path id="Path_13540" data-name="Path 13540" d="M25.61,76.115h63.6V75.27H25.61Z" transform="translate(-6.996 -20.463)" fill="#aa8453"/>
      <text id="SSL" transform="translate(40.604 48.778)" fill="#aa8453" font-size="12" font-family="Roboto" font-weight="700" font-style="italic"><tspan x="0" y="0">SSL</tspan></text>
      <text id="Secured-2" data-name="Secured" transform="translate(28.568 68.817)" fill="#aa8453" font-size="12" font-family="Roboto" font-weight="700" font-style="italic"><tspan x="0" y="0">Secured</tspan></text>
    </g>
    <g id="_1380130814240" transform="translate(254.002 5.768)">
      <path id="Path_13541" data-name="Path 13541" d="M408.361,7.92a44.319,44.319,0,0,0-41.461,28.8h2.869a41.571,41.571,0,0,1,77.185,0h2.869a44.326,44.326,0,0,0-41.461-28.8Z" transform="translate(-353.728 -7.92)" fill="#aa8453"/>
      <path id="Path_13542" data-name="Path 13542" d="M399.06,44.675h1.915a22.662,22.662,0,0,1,31.034,0h1.908a24.024,24.024,0,0,0-34.85,0Z" transform="translate(-362.47 -15.877)" fill="#aa8453"/>
      <path id="Path_13543" data-name="Path 13543" d="M454.109,77.061H351.548l5.425-11.935-5.425-11.935H454.109l-5.425,11.935Zm2.745-25.791H348.81l6.3,13.864L348.81,79H456.854l-6.3-13.864Z" transform="translate(-348.81 -19.704)" fill="#aa8453"/>
      <path id="Path_13544" data-name="Path 13544" d="M369.759,69.427a2.345,2.345,0,1,1-2.345-2.337A2.343,2.343,0,0,1,369.759,69.427Z" transform="translate(-353.23 -24.005)" fill="#aa8453"/>
      <path id="Path_13545" data-name="Path 13545" d="M474.47,69.427a2.341,2.341,0,1,0,2.345-2.337A2.343,2.343,0,0,0,474.47,69.427Z" transform="translate(-382.969 -24.005)" fill="#aa8453"/>
      <path id="Path_13546" data-name="Path 13546" d="M433.907,93.14H432a22.643,22.643,0,0,1-31.034,0H399.05a24.008,24.008,0,0,0,34.85,0Z" transform="translate(-362.467 -31.086)" fill="#aa8453"/>
      <path id="Path_13547" data-name="Path 13547" d="M408.72,119.594a44.305,44.305,0,0,0,40.5-26.454h-2.927a41.577,41.577,0,0,1-75.146,0H368.22A44.313,44.313,0,0,0,408.72,119.594Z" transform="translate(-354.086 -31.086)" fill="#aa8453"/>
      <text id="_100_" data-name="100%" transform="translate(31.224 51.799)" fill="#aa8453" font-size="18" font-family="Roboto" font-weight="700" font-style="italic"><tspan x="0" y="0">100%</tspan></text>
      <path id="Path_13548" data-name="Path 13548" d="M397.728,31.279c.539-.218.983-.386,1.34-.5s1.034-.291,2.032-.546a17.989,17.989,0,0,0,2.279-.706,5.844,5.844,0,0,0,1.413-.794,1.718,1.718,0,0,0,.59-.728,1.93,1.93,0,0,0,.036-1l.168-.036a2.6,2.6,0,0,1,.16,1.267,2,2,0,0,1-.772,1.325,4.036,4.036,0,0,1-1.318.626,17.226,17.226,0,0,1-2.388.459,10.327,10.327,0,0,0-4.566,1.413,2.728,2.728,0,0,0-.655.743,2.675,2.675,0,0,0-.364.9,1.861,1.861,0,0,0,.3,1.282l-.2.095a2.093,2.093,0,0,1-.146-1.959,2.951,2.951,0,0,1,.524-.83,4.354,4.354,0,0,1-1.726.32,3.571,3.571,0,0,1-2.818-1.529,6.092,6.092,0,0,1-1.223-3.08,4.738,4.738,0,0,1,.582-2.92,5.216,5.216,0,0,1,1.405-1.595,4.88,4.88,0,0,1,2.177-.976,3.369,3.369,0,0,1,2.388.459,4.6,4.6,0,0,1,1.267,1.15,5.579,5.579,0,0,1,1.15,3.189,5.1,5.1,0,0,1-.342,2.177,5,5,0,0,1-1.3,1.8Zm-5.083-7.726a3.257,3.257,0,0,0-1.18,1.879,5.418,5.418,0,0,0,.109,2.621,7.2,7.2,0,0,0,1.252,2.578,3.515,3.515,0,0,0,2.068,1.427,2.769,2.769,0,0,0,1.172-.015,2.691,2.691,0,0,0,1.063-.5,3.334,3.334,0,0,0,1.231-2.316,5.907,5.907,0,0,0-.357-2.76,6.706,6.706,0,0,0-.983-1.879,3.847,3.847,0,0,0-2.177-1.536,2.607,2.607,0,0,0-2.206.5Zm13.529-2.745.947-.269.233,3.677a13.334,13.334,0,0,0,.182,1.646.456.456,0,0,0,.189.277.355.355,0,0,0,.3.044.711.711,0,0,0,.473-.633,8.646,8.646,0,0,0,.095-.9h.175a5.591,5.591,0,0,1-.1,1.019,1.125,1.125,0,0,1-.808.917.973.973,0,0,1-.779-.095.945.945,0,0,1-.5-.626,3.944,3.944,0,0,1-.1-.881c-.007-.269-.029-.67-.073-1.194a13.753,13.753,0,0,1-.524,2.316,2.076,2.076,0,0,1-1.405,1.434,1.6,1.6,0,0,1-1.136-.066,1.153,1.153,0,0,1-.692-.786,3.94,3.94,0,0,1-.131-.721c-.022-.248-.065-.99-.131-2.235-.036-.655-.08-1.194-.138-1.617l-.969.451-.015-.167,1.915-.881c.066.517.1.9.124,1.129s.051.976.109,2.235a7.121,7.121,0,0,0,.16,1.405,1.18,1.18,0,0,0,.451.7.856.856,0,0,0,.735.095,1.273,1.273,0,0,0,.692-.5,3.811,3.811,0,0,0,.481-1.165,11.683,11.683,0,0,0,.313-3.743l-.051-.859Zm10.049-.837-.772,3.7a11.023,11.023,0,0,0-.233,1.42c0,.3.131.444.393.444a.619.619,0,0,0,.5-.306,4.218,4.218,0,0,0,.451-1.041l.167.058a7.058,7.058,0,0,1-.364.954,1.1,1.1,0,0,1-1.027.67,1.006,1.006,0,0,1-.743-.306,1.03,1.03,0,0,1-.313-.743,14.381,14.381,0,0,1,.306-1.835,11.337,11.337,0,0,1-.983,1.908,2.488,2.488,0,0,1-.772.743,1.731,1.731,0,0,1-.9.269,1.354,1.354,0,0,1-1.07-.466,2.176,2.176,0,0,1-.575-1.515,4.168,4.168,0,0,1,.721-2.33,4.064,4.064,0,0,1,2.046-1.58,4.916,4.916,0,0,1,1.682-.32,4.571,4.571,0,0,1,1.485.262Zm-1.027-.029c-.189-.022-.328-.036-.415-.036a3.1,3.1,0,0,0-1.646.532,3.754,3.754,0,0,0-1.42,1.8,4.883,4.883,0,0,0-.379,1.937,1.8,1.8,0,0,0,.24.961.91.91,0,0,0,.335.306.846.846,0,0,0,.408.124c.517-.007,1.056-.517,1.624-1.536a9.032,9.032,0,0,0,.706-1.653A10.739,10.739,0,0,0,415.014,21l.182-1.063Zm7.675-2.519-2.978,6.9c-.233.5-.364.794-.408.9a1.588,1.588,0,0,0-.1.357.487.487,0,0,0,.044.342.307.307,0,0,0,.24.167.7.7,0,0,0,.714-.357,8.2,8.2,0,0,0,.488-.772l.16.08a6.618,6.618,0,0,1-.539.874,1.123,1.123,0,0,1-1.129.459,1.023,1.023,0,0,1-.692-.43,1.006,1.006,0,0,1-.146-.786,5.921,5.921,0,0,1,.4-1.1l2.847-6.51-1.143-.058.029-.167,2.228.095Zm3.364,4.478c-.524.859-1.2,1.951-2.053,3.269a10.74,10.74,0,0,0-.8,1.347q-.164.513.218.633a.575.575,0,0,0,.546-.117,3.94,3.94,0,0,0,.765-.852l.146.095a5.432,5.432,0,0,1-.648.794,1.253,1.253,0,0,1-.561.32,1.061,1.061,0,0,1-1.274-1.369,9.663,9.663,0,0,1,1.056-1.791c.641-.947,1.151-1.718,1.536-2.337L424,21.7l.058-.167,2.177.364Zm.743-2.629a.563.563,0,0,1,.357.313.629.629,0,0,1,.036.473.635.635,0,0,1-.313.371.629.629,0,0,1-.881-.757.6.6,0,0,1,.313-.364.629.629,0,0,1,.488-.029Zm3.065,5.185-2.024,2.432-.255.306a5.617,5.617,0,0,0-.721.947c-.138.262-.1.451.117.568a.7.7,0,0,0,.779-.131,8.28,8.28,0,0,0,.684-.59l.117.117a7.777,7.777,0,0,1-.757.684,1.265,1.265,0,0,1-.6.218,1,1,0,0,1-.59-.1,1.013,1.013,0,0,1-.517-.626.969.969,0,0,1,.058-.794,4.092,4.092,0,0,1,.532-.714c.087-.095.32-.371.706-.83l1.6-1.93-.765-.4.146-.182.765.4,1.107-1.325.859.451-1.1,1.325,1.056.553-.146.182Zm5.017,2.381-2.731,2.148a7.366,7.366,0,0,0-1.012.917,1.09,1.09,0,0,0-.291.663.9.9,0,0,0,.371.757,2.169,2.169,0,0,0,2.185.029,11.288,11.288,0,0,0,1.58-.765,10.212,10.212,0,0,0,1.405-.925l.794-.648.765.633-4.172,3.291a7.249,7.249,0,0,1-2.934,1.536,3.049,3.049,0,0,1-2.687-.633,2.359,2.359,0,0,1-.794-1.129,1.915,1.915,0,0,1-.036-.786,1.444,1.444,0,0,1,.306-.677,1.1,1.1,0,0,1,.685-.4.847.847,0,0,1,.7.182.586.586,0,0,1,.218.408.615.615,0,0,1-.146.451.623.623,0,0,1-.444.218.643.643,0,0,1-.488-.146c-.175-.146-.218-.4-.116-.757a.608.608,0,0,0-.262.189,1.266,1.266,0,0,0-.255.575,1.454,1.454,0,0,0,.022.663,1.805,1.805,0,0,0,.619.954,2.294,2.294,0,0,0,2.483.175,9.891,9.891,0,0,0,2.286-1.354l2-1.587c-.677.335-1.172.561-1.478.684a6.747,6.747,0,0,1-1,.284,2.036,2.036,0,0,1-1.755-.451,1.57,1.57,0,0,1-.612-1.056,1.382,1.382,0,0,1,.342-1.07,2.42,2.42,0,0,1,.291-.306c.08-.073.313-.255.692-.546l2.425-1.922-.983-.59.109-.131,1.922,1.114Z" transform="translate(-360.104 -10.475)" fill="#aa8453"/>
      <path id="Path_13549" data-name="Path 13549" d="M395.607,96.981l.007.167a10.038,10.038,0,0,0-1.58.24,5.56,5.56,0,0,1,.976,1.143,2.271,2.271,0,0,1,.371,1.325,2.007,2.007,0,0,1-.488,1.223,2.347,2.347,0,0,1-1.959.9,4.158,4.158,0,0,1-2.57-1.07,10.347,10.347,0,0,1-.743-.721l-1.507,1.187a3.9,3.9,0,0,0,1.755.845l-.036.24a4.665,4.665,0,0,1-1.791-.845.7.7,0,0,0-.1-.095l-1.609,1.267,1.3,1.078-.189.146-3.168-2.636.182-.146,1.027.852,1.755-1.376a3.562,3.562,0,0,1-.459-1,2.667,2.667,0,0,1,.015-1.333,3.222,3.222,0,0,1,.655-1.26,3.562,3.562,0,0,1,2.731-1.325,4.517,4.517,0,0,1,1.689.277,6.279,6.279,0,0,1,1.653.888,11.745,11.745,0,0,1,2.1.044Zm-8.221,3.575,2.658-2.09a6.926,6.926,0,0,1,3.146-1.493,5.413,5.413,0,0,0-1.485-.728,4.208,4.208,0,0,0-2.272-.124,3.323,3.323,0,0,0-1.835,1.129,2.8,2.8,0,0,0-.692,1.624A2.737,2.737,0,0,0,387.387,100.557Zm6.371-3.095a5.617,5.617,0,0,0-1.325.575,19.329,19.329,0,0,0-1.74,1.3l-.917.728a4.622,4.622,0,0,0,.35.342,2.982,2.982,0,0,0,1.937.786,2.553,2.553,0,0,0,1.988-.99q1.1-1.322-.291-2.745Zm4.012,5.905-2.148,2.774a13.141,13.141,0,0,1,2.337-1.66,1.991,1.991,0,0,1,1.66-.262.734.734,0,0,1,.335.983.65.65,0,0,1-.386.35.686.686,0,0,1-.532-.051.7.7,0,0,1-.335-.968,1.22,1.22,0,0,1,.146-.218,7.772,7.772,0,0,0-2.417,1.383,15.431,15.431,0,0,0-2.4,2.541l-.874-.422,3.561-4.587-1.143-.371.08-.16,2.119.677Zm7.3,2.527a2.38,2.38,0,0,1,1.449.91,2.21,2.21,0,0,1,.393,1,3.171,3.171,0,0,1-.058,1.194,3.861,3.861,0,0,1-.808,1.544,3.012,3.012,0,0,1-3.218,1.187,2.521,2.521,0,0,1-1.66-1.114,2.317,2.317,0,0,1-.24-1.857,4.154,4.154,0,0,1,1.063-1.915A3.033,3.033,0,0,1,405.074,105.894Zm.015.24a1.856,1.856,0,0,0-1.9.765,7.234,7.234,0,0,0-.823,1.289,6.363,6.363,0,0,0-.568,1.42,1.69,1.69,0,0,0,.109,1.209,1.288,1.288,0,0,0,.874.67,1.513,1.513,0,0,0,.99-.066,2.7,2.7,0,0,0,.918-.786,7.894,7.894,0,0,0,.808-1.238,5.31,5.31,0,0,0,.488-1.209,2.143,2.143,0,0,0-.029-1.369,1.207,1.207,0,0,0-.874-.684Zm11.658-2.68-1.478,7.646c-.015.095-.036.277-.073.553s-.051.43-.051.481a.488.488,0,0,0,.109.335.35.35,0,0,0,.269.124.7.7,0,0,0,.619-.5c.08-.175.182-.459.313-.852l.175.044a5.856,5.856,0,0,1-.357.961,1.1,1.1,0,0,1-1.012.677.972.972,0,0,1-.75-.3,1.148,1.148,0,0,1-.306-.8,8.806,8.806,0,0,1,.306-1.777,11.472,11.472,0,0,1-.917,1.857,2.207,2.207,0,0,1-1.835,1.107,1.6,1.6,0,0,1-1.391-.634,2.323,2.323,0,0,1-.422-1.354,3.9,3.9,0,0,1,.714-2.3,4.379,4.379,0,0,1,2.1-1.609,4.929,4.929,0,0,1,1.653-.313c.138,0,.386.015.728.044l.6-3.087-1.231.182.015-.175,2.214-.328Zm-1.638,3.575c-.248-.029-.43-.044-.524-.044a3.279,3.279,0,0,0-2.184.9,4.032,4.032,0,0,0-1.027,1.485,4.481,4.481,0,0,0-.379,1.813,2.02,2.02,0,0,0,.248.976.95.95,0,0,0,.888.517c.582-.015,1.136-.481,1.638-1.405a10.353,10.353,0,0,0,1.1-2.971l.248-1.274Zm9.16-1.828.947-.262.226,3.677a16.1,16.1,0,0,0,.175,1.646.478.478,0,0,0,.182.277.355.355,0,0,0,.3.044.711.711,0,0,0,.473-.633,8.615,8.615,0,0,0,.095-.9h.175a5.519,5.519,0,0,1-.1,1.019,1.122,1.122,0,0,1-.816.917,1,1,0,0,1-.779-.095.965.965,0,0,1-.5-.626,3.937,3.937,0,0,1-.1-.881c-.007-.269-.029-.67-.073-1.194a15.017,15.017,0,0,1-.524,2.308,2.076,2.076,0,0,1-1.405,1.434,1.679,1.679,0,0,1-1.136-.066,1.167,1.167,0,0,1-.692-.786,3.922,3.922,0,0,1-.131-.721c-.022-.248-.066-.99-.131-2.235q-.055-.983-.131-1.617l-.968.451-.015-.167,1.915-.881c.066.517.1.9.124,1.129s.051.976.109,2.235a7.3,7.3,0,0,0,.16,1.413,1.148,1.148,0,0,0,.451.7.832.832,0,0,0,.735.095,1.273,1.273,0,0,0,.692-.5,3.811,3.811,0,0,0,.481-1.165,11.879,11.879,0,0,0,.32-3.743l-.051-.859Zm8.439-2.774a.921.921,0,0,0-.612-.473,1.184,1.184,0,0,0-.816.131,1.536,1.536,0,0,0-.634.641,3.306,3.306,0,0,0-.313,1.158,5.269,5.269,0,0,0,.044,1.58,4.445,4.445,0,0,0,.459,1.427,1.951,1.951,0,0,0,.917.9,1.11,1.11,0,0,0,1.019-.066,1.765,1.765,0,0,0,.743-.735,4.046,4.046,0,0,0,.379-1.354l.182.007a2.91,2.91,0,0,1-1.427,2.476,1.956,1.956,0,0,1-1.471.189,2.068,2.068,0,0,1-1.318-1.1,4.606,4.606,0,0,1-.5-2.308,3.426,3.426,0,0,1,.743-2.2,2.924,2.924,0,0,1,.867-.714,1.736,1.736,0,0,1,1.121-.233,1.125,1.125,0,0,1,.83.619.936.936,0,0,1,.1.663.666.666,0,0,1-.35.481.6.6,0,0,1-.473.044.589.589,0,0,1-.371-.313.628.628,0,0,1,.262-.845.626.626,0,0,1,.619.015Zm3.692-3.379,1.376,2.847.175.357a5.554,5.554,0,0,0,.568,1.049c.182.233.371.277.568.124a.7.7,0,0,0,.2-.765,8.381,8.381,0,0,0-.255-.874l.153-.058a7.722,7.722,0,0,1,.306.968,1.366,1.366,0,0,1-.044.641,1.054,1.054,0,0,1-.335.5,1.069,1.069,0,0,1-.786.218.991.991,0,0,1-.7-.379,3.773,3.773,0,0,1-.43-.779c-.051-.117-.2-.444-.466-.99l-1.1-2.257-.685.532-.1-.211.684-.532-.75-1.551.772-.6.757,1.551.939-.728.1.211-.947.735Zm5.767.488a1.384,1.384,0,0,0,1.755-.481,1.66,1.66,0,0,0,.43-1.056,1.15,1.15,0,0,0-.393-.954,1.107,1.107,0,0,0-.9-.255,4.846,4.846,0,0,0-.852.269,3.675,3.675,0,0,1-1.318.291,1.446,1.446,0,0,1-1.405-1.471,2.25,2.25,0,0,1,.583-1.529,2.4,2.4,0,0,1,.99-.728,1.181,1.181,0,0,1,1.26.2.807.807,0,0,1,.291.488.625.625,0,0,1-.153.5.6.6,0,0,1-.43.218.616.616,0,0,1-.466-.153.627.627,0,0,1-.226-.43.615.615,0,0,1,.153-.466.591.591,0,0,1,.43-.2,1.127,1.127,0,0,0-.772-.029,1.614,1.614,0,0,0-.714.517,1.644,1.644,0,0,0-.408.852,1.274,1.274,0,0,0,.073.546,1,1,0,0,0,.3.437.951.951,0,0,0,.692.24,4.141,4.141,0,0,0,1.165-.335,3.213,3.213,0,0,1,1.172-.3,1.385,1.385,0,0,1,.932.357,1.558,1.558,0,0,1,.568,1.333,2.739,2.739,0,0,1-.706,1.638,2.317,2.317,0,0,1-1.158.8,1.279,1.279,0,0,1-1.223-.3,1.053,1.053,0,0,1-.371-.575.636.636,0,0,1,.582-.786.624.624,0,0,1,.488.16.684.684,0,0,1,.233.451.613.613,0,0,1-.138.481.892.892,0,0,1-.459.248Z" transform="translate(-358.449 -31.192)" fill="#aa8453"/>
    </g>
  </g>
</svg>
