<svg id="_2684801728656" xmlns="http://www.w3.org/2000/svg" width="206.72" height="120.792" viewBox="0 0 206.72 120.792">
  <path id="Path_104" data-name="Path 104" d="M9814.256,7769.33h-2.828c-5.479,0-11.3-5.826-11.3-11.306,0-4.708.063-6.728,3.929-10.606,7.407-7.432,21.508-2.628,21.508,9.4,0,6.812-6.1,12.515-11.3,12.515Zm80.345-12.517c0-13.521,18.585-18.108,24.509-5.531,6.357,13.5-11.586,24.088-20.789,14.328C9896.727,7763.921,9894.6,7759.908,9894.6,7756.813Zm37.146-4.441h-3.229c-.083-3.655-3.124-8.411-5.634-10.921-15.192-15.192-36.1-.562-36.356,10.921h-20.591a37.382,37.382,0,0,1,1.453-7.428l11.869-52.731,31.036.054a33.142,33.142,0,0,1,11.751,3.591,35.882,35.882,0,0,1,4.547,3.125c4.419,3.9,7.465,7.287,9.648,13.767,2.959,8.77-.223,16.239-1.961,26.409-.771,4.505-1.553,9.006-2.533,13.212Zm-157.865-90.44a4.491,4.491,0,0,0,2.514,3.946c1.615.774,4.113.5,6.369.5h93.265l-18.163,80.351a39.506,39.506,0,0,0-1.216,5.648H9834.04c-4.133-17.736-24.3-21.965-35.229-12.214-2.8,2.5-6.78,7.593-7.166,12.214-3.632,0-7.271.021-10.9,0-2.223-.015-6.86-.42-6.86,4.444,0,3.44,3.323,4.436,6.441,4.458,3.765.027,7.555-.017,11.322-.017a20.6,20.6,0,0,0,6.1,10.861c10.3,9.919,26.379,7.5,33.711-4.565,1.631-2.681,1.541-3.759,2.152-5.117.393-.878-.055-1.179,1.24-1.179h51.681c.155,7.025,9.7,16.957,19.784,16.957,6.912,0,10.391-1.137,15.406-5.185,2.639-2.13,6.449-7.558,6.8-11.772,4.926,0,9.742.8,11.145-2.985a48.615,48.615,0,0,0,1.2-6.068c.426-2.379.722-3.829,1.148-6.118,1.041-5.6,4.27-20.692,4.27-26.011,0-7.37-3.291-14.532-6.291-19.144a38.576,38.576,0,0,0-17.111-14.381,36.945,36.945,0,0,0-16.162-3.217c-8.478.03-16.96,0-25.437,0,.4-.843,4.845-20.494,4.845-21.8,0-1.965-2.281-4.037-4.442-4.037H9778.322a4.568,4.568,0,0,0-4.441,4.441Z" transform="translate(-9739.561 -7657.492)" fill-rule="evenodd"/>
  <path id="Path_105" data-name="Path 105" d="M8924.531,9370.218c0,3.151,1.768,4.845,5.248,4.845h49.662c7.426,0,6.576-8.883,1.615-8.883h-52.488A3.99,3.99,0,0,0,8924.531,9370.218Z" transform="translate(-8924.531 -9297.138)" fill-rule="evenodd"/>
  <path id="Path_106" data-name="Path 106" d="M9134.371,8731.121c0,3.116,2.921,4.441,6.056,4.441H9180.8c7.426,0,6.576-8.884,1.616-8.884h-44.009A4.292,4.292,0,0,0,9134.371,8731.121Z" transform="translate(-9125.893 -8683.477)" fill-rule="evenodd"/>
  <path id="Path_107" data-name="Path 107" d="M9354.5,8096.063h32.3c7.425,0,6.575-8.884,1.614-8.884h-35.53C9347.923,8087.179,9347.073,8096.063,9354.5,8096.063Z" transform="translate(-9331.889 -8069.816)" fill-rule="evenodd"/>
</svg>
